<?xml version="1.0" standalone="no"?>
<!DOCTYPE svg PUBLIC "-//W3C//DTD SVG 20010904//EN"
 "http://www.w3.org/TR/2001/REC-SVG-20010904/DTD/svg10.dtd">
<svg version="1.0" xmlns="http://www.w3.org/2000/svg"
 width="167.000000pt" height="180.000000pt" viewBox="0 0 167.000000 180.000000"
 preserveAspectRatio="xMidYMid meet">

<g transform="translate(0.000000,180.000000) scale(0.100000,-0.100000)"
fill="#000000" stroke="none">
<path d="M505 1126 c-37 -16 -83 -68 -91 -102 -10 -40 2 -114 23 -143 26 -35
99 -71 145 -71 l38 0 0 45 c0 45 0 45 -36 45 -47 0 -69 13 -83 49 -10 24 -10
34 3 59 25 49 81 57 121 17 23 -22 25 -31 25 -125 0 -95 -2 -102 -26 -126 -25
-26 -61 -29 -106 -10 -12 6 -21 0 -32 -23 -22 -42 -21 -46 24 -66 72 -33 148
-8 198 65 20 30 22 45 22 160 0 115 -2 130 -22 160 -13 18 -35 42 -50 53 -34
25 -113 32 -153 13z"/>
<path d="M854 1121 c-68 -31 -84 -68 -84 -200 l0 -111 40 0 40 0 0 95 c0 90 2
98 26 122 22 22 32 25 68 20 40 -6 43 -4 61 29 10 19 16 35 14 37 -43 30 -108
34 -165 8z"/>
<path d="M1090 1118 c-73 -38 -104 -100 -89 -182 9 -52 36 -87 89 -113 53 -28
92 -29 146 -4 63 29 89 72 89 151 0 79 -26 122 -89 151 -54 25 -93 24 -146 -3z
m124 -89 c20 -16 26 -29 26 -59 0 -70 -72 -103 -126 -57 -20 17 -27 33 -27 57
0 24 7 40 27 57 34 28 65 29 100 2z"/>
<path d="M1439 1117 c-60 -32 -94 -97 -84 -162 12 -83 88 -145 178 -145 25 0
27 3 27 45 0 45 0 45 -35 45 -43 0 -85 37 -85 73 0 67 83 102 128 54 21 -22
22 -33 22 -190 l0 -167 40 0 40 0 0 181 c0 169 -2 184 -22 217 -23 38 -85 71
-134 72 -17 0 -51 -10 -75 -23z"/>
<path d="M110 997 c-58 -72 -106 -135 -108 -139 -2 -5 26 -8 62 -8 36 0 66 -4
66 -8 0 -5 -11 -42 -25 -82 -14 -40 -25 -78 -25 -83 0 -5 50 53 111 129 l111
139 -66 3 c-36 2 -66 6 -66 10 0 4 11 43 25 87 13 43 23 80 22 81 -1 2 -50
-57 -107 -129z"/>
</g>
</svg>
