<?xml version="1.0" standalone="no"?>
<!DOCTYPE svg PUBLIC "-//W3C//DTD SVG 20010904//EN"
 "http://www.w3.org/TR/2001/REC-SVG-20010904/DTD/svg10.dtd">
<svg version="1.0" xmlns="http://www.w3.org/2000/svg"
 width="314.000000pt" height="180.000000pt" viewBox="0 0 314.000000 180.000000"
 preserveAspectRatio="xMidYMid meet">

<g transform="translate(0.000000,180.000000) scale(0.100000,-0.100000)"
fill="#000000" stroke="none">
<path d="M324 1490 c-180 -36 -324 -214 -324 -399 0 -167 96 -311 257 -383 38
-17 73 -23 171 -26 l122 -4 0 74 0 75 -103 5 c-90 4 -110 8 -156 34 -152 82
-180 279 -59 404 99 100 287 93 376 -16 56 -67 62 -103 62 -353 0 -125 -5
-243 -10 -263 -17 -59 -69 -120 -129 -151 -88 -44 -194 -35 -268 23 l-27 21
-53 -53 -53 -52 26 -27 c39 -41 152 -89 225 -95 166 -16 329 79 402 234 l32
67 0 295 0 295 -32 67 c-82 173 -268 265 -459 228z"/>
<path d="M1276 1490 c-125 -22 -240 -113 -299 -238 l-32 -67 -3 -252 -4 -253
75 0 75 0 4 233 c4 255 7 271 69 342 66 75 189 106 276 70 19 -8 37 -15 39
-15 5 0 74 120 74 130 0 15 -102 47 -165 53 -33 3 -82 1 -109 -3z"/>
<path d="M1892 1490 c-75 -11 -159 -55 -220 -117 -199 -199 -142 -528 114
-654 125 -62 293 -49 409 31 173 119 226 363 119 546 -55 94 -169 172 -284
194 -58 11 -61 11 -138 0z m160 -166 c53 -18 110 -68 137 -122 79 -156 -24
-348 -198 -369 -150 -18 -281 100 -281 253 0 72 17 119 62 170 66 75 179 103
280 68z"/>
<path d="M2796 1490 c-126 -22 -240 -113 -299 -238 -29 -61 -32 -75 -31 -162
0 -74 5 -108 23 -153 43 -108 120 -184 238 -233 49 -20 75 -24 171 -24 l112 0
0 74 0 73 -109 5 c-95 4 -114 8 -154 31 -83 49 -127 128 -127 229 0 139 111
248 253 248 96 0 176 -45 224 -128 l28 -47 5 -425 6 -425 -1 545 0 544 -33 23
c-81 54 -208 80 -306 63z"/>
</g>
</svg>
