<?xml version="1.0" standalone="no"?>
<!DOCTYPE svg PUBLIC "-//W3C//DTD SVG 20010904//EN"
 "http://www.w3.org/TR/2001/REC-SVG-20010904/DTD/svg10.dtd">
<svg version="1.0" xmlns="http://www.w3.org/2000/svg"
 width="154.000000pt" height="180.000000pt" viewBox="0 0 154.000000 180.000000"
 preserveAspectRatio="xMidYMid meet">

<g transform="translate(0.000000,180.000000) scale(0.100000,-0.100000)"
fill="#000000" stroke="none">
<path d="M423 1604 c-66 -33 -110 -184 -94 -324 6 -53 5 -56 -26 -83 -18 -16
-47 -58 -65 -95 -28 -57 -33 -76 -32 -142 0 -56 6 -88 23 -127 23 -52 23 -52
4 -105 -12 -37 -18 -81 -18 -148 0 -81 4 -102 25 -145 25 -50 25 -51 8 -101
-9 -28 -20 -73 -23 -100 l-6 -49 48 -31 48 -31 -3 67 c-3 55 1 78 23 134 23
56 25 72 15 90 -6 11 -20 37 -31 56 -34 61 -23 223 17 271 17 19 18 65 3 75
-6 3 -20 25 -30 48 -65 143 40 326 186 326 50 0 85 16 85 39 0 16 67 75 105
92 80 37 177 16 243 -51 17 -19 32 -37 32 -41 0 -23 35 -39 85 -39 146 0 251
-183 186 -326 -10 -23 -24 -45 -30 -48 -18 -11 -13 -47 14 -100 33 -65 36
-191 6 -246 -11 -19 -25 -45 -31 -56 -10 -18 -8 -34 15 -90 22 -56 26 -79 23
-134 l-3 -67 48 31 48 31 -7 55 c-3 30 -13 74 -23 99 -16 44 -16 46 9 95 21
44 25 65 25 146 0 67 -6 111 -18 148 -19 53 -19 53 4 105 17 39 23 71 23 127
1 66 -4 85 -32 142 -18 37 -47 79 -65 95 -31 27 -32 30 -26 83 23 204 -63 369
-168 325 -18 -8 -43 -31 -57 -52 -22 -34 -31 -60 -50 -145 l-6 -27 -47 21
c-33 14 -68 21 -113 21 -45 0 -80 -7 -113 -21 l-47 -21 -6 27 c-19 85 -28 111
-50 145 -14 21 -41 45 -59 53 -41 17 -33 17 -72 -2z m82 -147 c16 -53 21 -163
8 -170 -5 -3 -29 -8 -55 -11 l-48 -7 0 68 c1 80 11 133 35 169 22 34 40 19 60
-49z m599 36 c12 -25 20 -71 24 -131 l5 -94 -49 7 c-27 4 -52 9 -56 12 -24 13
2 192 32 228 18 22 24 19 44 -22z"/>
<path d="M719 981 c-55 -11 -110 -44 -143 -85 -27 -33 -31 -46 -31 -99 0 -76
24 -115 93 -149 67 -33 196 -32 265 1 68 33 92 71 92 148 0 54 -4 66 -31 100
-54 66 -156 101 -245 84z m114 -63 c22 -7 56 -27 74 -45 27 -28 33 -41 33 -76
0 -73 -65 -117 -170 -117 -105 0 -170 44 -170 117 0 93 119 155 233 121z"/>
<path d="M720 831 c0 -9 5 -22 12 -29 7 -7 13 -22 13 -35 0 -15 7 -23 23 -25
18 -3 22 1 22 24 0 15 7 32 17 39 29 21 9 42 -41 42 -37 1 -46 -2 -46 -16z"/>
<path d="M445 956 c-30 -30 -32 -57 -7 -79 52 -48 132 20 90 75 -24 30 -56 31
-83 4z"/>
<path d="M1033 970 c-48 -20 -33 -102 20 -108 33 -4 67 22 67 50 0 19 -42 69
-57 67 -4 0 -18 -4 -30 -9z"/>
</g>
</svg>
