<?xml version="1.0" standalone="no"?>
<!DOCTYPE svg PUBLIC "-//W3C//DTD SVG 20010904//EN"
 "http://www.w3.org/TR/2001/REC-SVG-20010904/DTD/svg10.dtd">
<svg version="1.0" xmlns="http://www.w3.org/2000/svg"
 width="169.000000pt" height="180.000000pt" viewBox="0 0 169.000000 180.000000"
 preserveAspectRatio="xMidYMid meet">

<g transform="translate(0.000000,180.000000) scale(0.100000,-0.100000)"
fill="#000000" stroke="none">
<path d="M685 1789 c-79 -12 -157 -37 -172 -57 -7 -9 -13 -12 -13 -8 0 21 -60
-39 -74 -74 -16 -41 -22 -159 -10 -219 l7 -31 213 0 214 0 0 -35 0 -34 -337
-4 c-186 -1 -349 -6 -362 -10 -55 -15 -130 -81 -116 -101 3 -3 2 -4 -2 -1 -3
3 -12 -3 -19 -13 -10 -13 -13 -83 -14 -308 l0 -291 29 -39 c61 -84 105 -104
229 -104 l89 0 5 143 c6 152 15 188 64 246 15 18 45 42 68 54 39 21 56 22 336
27 326 6 337 8 401 72 54 53 59 86 59 364 0 240 -1 250 -23 286 -27 44 -61 72
-123 99 -94 42 -300 59 -449 38z m-26 -155 c35 -45 26 -95 -20 -119 -41 -21
-57 -19 -91 15 -23 23 -29 37 -26 62 6 65 97 93 137 42z"/>
</g>
</svg>
