<?xml version="1.0" standalone="no"?>
<!DOCTYPE svg PUBLIC "-//W3C//DTD SVG 20010904//EN"
 "http://www.w3.org/TR/2001/REC-SVG-20010904/DTD/svg10.dtd">
<svg version="1.0" xmlns="http://www.w3.org/2000/svg"
 width="289.000000pt" height="180.000000pt" viewBox="0 0 289.000000 180.000000"
 preserveAspectRatio="xMidYMid meet">

<g transform="translate(0.000000,180.000000) scale(0.100000,-0.100000)"
fill="#000000" stroke="none">
<path d="M942 1479 c-13 -5 -35 -18 -49 -29 -25 -19 -41 -20 -425 -20 -255 0
-406 -4 -419 -10 -48 -26 -49 -40 -49 -505 0 -465 1 -479 49 -505 12 -6 124
-10 290 -10 l270 0 6 -47 c4 -27 11 -59 15 -73 7 -18 7 -13 2 15 -4 22 -6 94
-6 160 3 246 96 533 244 757 28 43 73 101 101 130 l50 53 -36 -48 c-120 -164
-259 -476 -310 -693 -8 -36 -15 -67 -15 -68 0 -3 75 66 149 136 32 31 103 129
98 135 -2 1 -31 -6 -65 -16 -80 -25 -72 -12 15 24 37 15 75 34 84 42 26 22
125 221 148 297 12 37 21 91 21 120 -1 120 -78 191 -168 155z m-102 -75 c0 -4
-13 -21 -29 -40 -81 -92 -194 -340 -195 -429 0 -27 3 -59 7 -70 5 -11 0 -6 -9
10 -16 27 -19 28 -22 10 -3 -11 -9 -31 -15 -45 -6 -14 -10 -28 -9 -32 1 -5
-49 -8 -110 -8 -365 -1 -413 -4 -420 -25 -3 -11 -6 118 -7 288 -1 294 0 308
19 327 19 19 33 20 405 20 212 0 385 -3 385 -6z m-246 -610 c3 -8 2 -12 -4 -9
-6 3 -10 10 -10 16 0 14 7 11 14 -7z"/>
<path d="M1073 916 c-43 -20 -67 -67 -60 -123 6 -54 29 -81 120 -139 81 -53
107 -95 88 -142 -35 -83 -173 -61 -200 31 -8 28 -9 24 -10 -32 -1 -50 2 -61
12 -53 8 7 30 5 73 -6 57 -15 62 -15 99 4 54 27 80 66 79 118 -1 59 -24 87
-119 150 -46 31 -89 64 -95 75 -30 57 4 111 71 111 53 0 75 -13 98 -58 l20
-37 1 50 c0 45 -2 50 -22 51 -13 1 -45 5 -73 8 -34 4 -60 2 -82 -8z"/>
<path d="M1506 916 c-98 -37 -160 -125 -160 -230 1 -103 57 -182 164 -230 35
-15 68 -40 92 -69 48 -58 108 -87 179 -87 30 0 61 5 69 10 11 7 2 10 -31 10
-33 0 -55 7 -75 22 -33 27 -93 90 -94 100 0 3 15 11 33 17 51 17 107 70 133
125 57 122 10 256 -111 318 -51 26 -147 33 -199 14z m171 -26 c18 -10 44 -38
59 -60 23 -35 28 -55 32 -125 4 -73 1 -90 -21 -137 -29 -65 -72 -99 -132 -106
-57 -6 -86 2 -125 34 -110 93 -99 311 19 391 44 30 122 31 168 3z"/>
<path d="M1880 925 c0 -3 11 -10 25 -15 l25 -10 0 -210 0 -210 -25 -10 c-14
-5 -25 -12 -25 -15 0 -3 70 -5 155 -5 l155 0 0 35 0 34 -25 -24 c-20 -21 -34
-25 -88 -25 -36 0 -68 5 -75 12 -9 9 -12 71 -12 216 0 195 1 204 20 209 44 12
16 23 -55 23 -41 0 -75 -2 -75 -5z"/>
<path d="M2280 820 c0 -24 26 -38 42 -22 8 8 8 15 -2 27 -18 21 -40 19 -40 -5z"/>
<path d="M2487 762 c-10 -18 -30 -38 -45 -44 l-27 -12 28 -4 27 -3 0 -119 c0
-106 2 -120 18 -129 10 -6 30 -7 43 -4 29 7 89 50 89 64 0 5 -13 0 -29 -12
-16 -11 -39 -19 -52 -17 -23 3 -24 6 -27 111 l-3 107 41 0 c22 0 40 5 40 10 0
6 -18 10 -39 10 -39 0 -40 1 -43 38 l-3 37 -18 -33z"/>
<path d="M2283 717 c-49 -11 -56 -24 -15 -29 l27 -3 3 -103 c3 -97 1 -104 -18
-109 -43 -11 -17 -23 50 -23 40 0 70 4 70 10 0 6 -11 10 -25 10 -19 0 -25 5
-25 23 -1 12 -2 69 -3 126 -1 60 -6 105 -12 106 -5 2 -29 -2 -52 -8z"/>
<path d="M2745 721 c-107 -47 -115 -241 -11 -269 49 -14 106 1 133 35 34 41
29 63 -5 29 -41 -38 -91 -45 -125 -15 -15 13 -28 34 -29 47 -3 20 5 26 52 42
49 17 110 66 110 88 0 36 -79 63 -125 43z m55 -42 c15 -28 7 -45 -32 -69 -66
-40 -90 -11 -48 58 23 38 63 44 80 11z"/>
</g>
</svg>
